<svg xmlns="http://www.w3.org/2000/svg"  viewBox="0 0 48 48" width="48px" height="48px"><path fill="#f44336" d="M38.6,4.4c-2.4-1.8-5.3-2.9-8.4-3.4c-0.6-0.1-1.2,0.3-1.3,0.9c-0.1,0.6,0.3,1.2,0.9,1.3c2.7,0.5,5.3,1.4,7.4,3 c0.5,0.4,1.2,0.2,1.5-0.3C39.1,5.4,39,4.7,38.6,4.4z"/><path fill="#f44336" d="M9.4,4.4c2.4-1.8,5.3-2.9,8.4-3.4c0.6-0.1,1.2,0.3,1.3,0.9c0.1,0.6-0.3,1.2-0.9,1.3c-2.7,0.5-5.3,1.4-7.4,3 c-0.5,0.4-1.2,0.2-1.5-0.3C8.9,5.4,9,4.7,9.4,4.4z"/><path fill="#f44336" d="M39,13.9c-0.1-0.6-0.7-1-1.3-0.9c-3.1,0.5-6.2,0.5-9.3,0c-0.6-0.1-1.2,0.3-1.3,0.9c-0.1,0.6,0.3,1.2,0.9,1.3 c3.4,0.5,6.9,0.5,10.3,0C38.9,15.2,39.1,14.5,39,13.9z"/><path fill="#f44336" d="M9,13.9c0.1-0.6,0.7-1,1.3-0.9c3.1,0.5,6.2,0.5,9.3,0c0.6-0.1,1.2,0.3,1.3,0.9c0.1,0.6-0.3,1.2-0.9,1.3 c-3.4,0.5-6.9,0.5-10.3,0C9.1,15.2,8.9,14.5,9,13.9z"/><path d="M24,18c-9.9,0-18,8.1-18,18c0,4.2,1.5,8.1,3.9,11.2C12.3,47.7,18,48,24,48s11.7-0.3,14.1-0.8C40.5,44.1,42,40.2,42,36 C42,26.1,33.9,18,24,18z M24,20c8.8,0,16,7.2,16,16c0,3.5-1.2,6.8-3.4,9.4C34.3,46,29.3,46,24,46s-10.3,0-12.6-0.6 C8.8,42.8,7.9,39.5,8,36C8,27.2,15.2,20,24,20z"/><path d="M36.1,28.2c-0.8-1.7-2.9-3-5.2-3c-1.8,0-3.4,0.8-4.4,2.2c-0.8-0.9-2-2.1-3.5-2.1c-1.3,0-2.6,0.9-3.2,2.2 c-0.8,1.7,0.1,3.8,1.6,5.3l5,5l5.1-5.1C42.4,30.3,38.2,22.7,36.1,28.2z"/></svg>